# xmcd
#
# Track frame offsets:
#	150
#	15832
#	28859
#	37626
#	56920
#	74369
#	89214
#	106028
#	121159
#	136344
#	154178
#	168445
#	187202
#	203784
#	219938
#	237025
#	256574
#	271213
#	286927
#	299782
#	315092
#
# Disc length: 4411 seconds
#
# Revision: 0
# Processed by: cddbd v1.4PL0 Copyright (c) Steve Scherf et al.
# Submitted via: dBpowerAMP V4.0
#
DISCID=24113915
DTITLE=Varity - Crusin Country
DYEAR=1900
DGENRE=Country
TTITLE0=Hooked on an 8 Second Ride
TTITLE1=Cadalic Ranch
TTITLE2=Copenhagen
TTITLE3=The Hat
TTITLE4=Carrying Your Love With Me
TTITLE5=Im All Right
TTITLE6=Stand Beside Me
TTITLE7=Heads $ Tales
TTITLE8=The Good Stuff
TTITLE9=Young
TTITLE10=I Wanna Know
TTITLE11=She Thinks my Tractor Sexy
TTITLE12=Ordany No
TTITLE13=Life Goes On
TTITLE14=I Need You
TTITLE15=Daddy Wont Sell The Farm
TTITLE16=Hillbilly
TTITLE17=How do You Like me Know
TTITLE18=Pour Me
TTITLE19=Cant Get no Loving
TTITLE20=On a Night Like This
EXTD=varity of country 1
EXTT0=
EXTT1=
EXTT2=
EXTT3=
EXTT4=
EXTT5=
EXTT6=
EXTT7=
EXTT8=
EXTT9=
EXTT10=
EXTT11=
EXTT12=
EXTT13=
EXTT14=
EXTT15=
EXTT16=
EXTT17=
EXTT18=
EXTT19=
EXTT20=
PLAYORDER=
